<svg width="735" height="131" viewBox="0 0 735 131" fill="none" xmlns="http://www.w3.org/2000/svg">
<path d="M405.521 122.979L407.98 4.47926C407.991 3.93517 408.435 3.5 408.979 3.5H440C440.552 3.5 441 3.94771 441 4.5V47.0441C441 48.0005 442.214 48.4112 442.795 47.6512L474.4 6.28576C474.778 5.79053 475.366 5.5 475.989 5.5H500.981C501.808 5.5 502.278 6.44779 501.776 7.10604L463.831 56.9099C463.33 57.5669 463.285 58.4641 463.717 59.168L502.612 122.553C503.011 123.202 502.565 124.041 501.804 124.075L470.63 125.45C469.929 125.481 469.263 125.142 468.875 124.557L440.728 82.1055C440.19 81.2942 438.927 81.6516 438.895 82.6244L437.533 123.034C437.514 123.573 437.072 124 436.533 124H406.521C405.961 124 405.51 123.54 405.521 122.979Z" fill="white"/>
<path d="M537 95V8C537 6.89543 537.895 6 539 6H566.429C567.561 6 568.467 6.93197 568.434 8.06345C567.713 32.5884 568.5 79.8064 568.5 88.5C568.5 98.5 573 102 578.5 102C585.5 102 589.5 98.5 589.5 88.5V11.5C589.5 10.3954 590.395 9.5 591.5 9.5H614.5C615.605 9.5 616.5 10.3863 616.495 11.4909C616.398 31.2427 615 82.931 615 95C615 113.173 608 121 600 126C593.5 130.5 578.5 131.5 565.5 128.5C552.5 125.5 537 117 537 95Z" fill="white"/>
<path d="M1 98.5L0.0209399 4.02073C0.0094102 2.90812 0.908161 2.00001 2.02083 2.00001H35.0153C36.1139 2.00001 37.0067 2.88098 37.015 3.97954C37.1867 26.7381 37.5292 75.6897 38.5 82C39.5 88.5 43.4999 94.7352 50 95C56.6853 95.7412 79.4843 95.0667 94.0065 95.0045C95.1111 94.9998 96 95.8954 96 97V122C96 123.105 95.1127 124 94.0081 123.996C76.3265 123.926 42.3996 123 27 123C9.5 123 1 112.056 1 98.5Z" fill="white"/>
<path d="M119 18.775V4.51581C119 3.40509 118.095 2.50713 116.984 2.51587L68.8228 2.89507C61.3589 2.95384 55.2554 8.85226 55.0186 16.3127C54.7629 24.3652 54.5 34.5726 54.5 42.5C54.5 50.3291 54.7564 60.5107 55.009 68.6422C55.2475 76.3198 61.6824 82.3067 69.3599 82.0668L117.562 80.5605C118.642 80.5268 119.5 79.6418 119.5 78.5615V64C119.5 62.8954 118.606 61.9998 117.501 61.9981C110.736 61.9877 88.9507 61.9215 86 61.5C82.7984 61.0426 80.852 60.5853 81.1464 54.7701C81.1976 53.7599 82.0485 52.9878 83.0599 52.9716L110.532 52.5315C111.624 52.514 112.5 51.6239 112.5 50.5318V37.0248C112.5 35.9106 111.601 35.0109 110.486 35.0232C104.117 35.0936 84.752 35.283 83.5 35C81.288 34.5 81.5 28.5 82 25C82.2733 23.0869 83.3523 21.685 85.7498 20.9198C86.078 20.815 86.4224 20.775 86.7668 20.775H117C118.105 20.775 119 19.8796 119 18.775Z" fill="white"/>
<path d="M270 121V5C270 3.89543 270.895 3 272 3H297.5C298.605 3 299.5 3.89543 299.5 5V121C299.5 122.105 298.605 123 297.5 123H272C270.895 123 270 122.105 270 121Z" fill="white"/>
<path d="M339.5 4H386.828C387.933 4 388.828 4.89543 388.828 6V26.5C388.828 27.6046 387.941 28.4987 386.836 28.4955C381.319 28.4791 367.537 28.4278 365.828 28.5C356 28.5 351 34.5 349 44.5C347.6 51.5 346.5 70.5 349 86.5C351.307 101.267 367.669 98.5719 380.004 98.0687C381.66 98.0012 383 99.3431 383 101V120C383 121.657 381.676 123 380.019 122.997C370.326 122.98 340.881 122.86 334 122C322.093 120.512 315.167 110.5 314 104C312 75.5 315 33.5 316.5 24.5C317.5 11.5 326.5 4 339.5 4Z" fill="white"/>
<path fill-rule="evenodd" clip-rule="evenodd" d="M156.5 2V117.566C156.5 118.644 157.355 119.529 158.433 119.564L184.526 120.434C185.62 120.471 186.54 119.621 186.591 118.527L188.917 67.8195C188.964 66.7883 189.799 65.9619 190.83 65.9131L193.038 65.8086C221.841 64.4467 236.371 63.7597 244.5 58.5C253 53 258 43.4999 258 29.5C258 15.5001 246.74 -9.62536e-05 227 4.48381e-10L158.478 3.53398e-06C157.374 4.48381e-10 156.5 0.895433 156.5 2ZM194.301 38.2712L193.257 29.2292C193.12 28.0417 194.049 27 195.244 27H223.5C228.5 27 234 28.5 234 33C233.5 37 227 39.6154 222 40C216.634 40.4128 201.386 40.144 196.229 40.0377C195.232 40.0171 194.415 39.2624 194.301 38.2712Z" fill="white"/>
<path fill-rule="evenodd" clip-rule="evenodd" d="M629.908 11.9784C628.622 34.4512 628.511 115.213 628.501 128.993C628.5 130.12 629.431 130.973 630.557 130.941L661.621 130.054C662.677 130.023 663.528 129.177 663.563 128.122L665.437 72.3884C665.472 71.3285 666.329 70.481 667.389 70.4548C688.333 69.9373 710.278 68.8246 719.5 63C729.5 58.2 735 49.5 735 35.5C735 20.5 722 10 703 9.00001C684.823 8.04331 643.765 8.45942 631.486 10.2485C630.593 10.3786 629.959 11.0774 629.908 11.9784ZM666.727 43.5576C666.409 41.5087 666.014 37.4429 666.758 32.44C666.886 31.5797 667.586 30.9249 668.45 30.8289C675.91 30 682.955 30 690 30C699 30 708.481 31.5 708.481 38C707.981 42 700.519 45 695 45C686.327 45.826 672.878 45.2874 668.46 45.075C667.586 45.033 666.862 44.4226 666.727 43.5576Z" fill="white"/>
</svg>
